RELEASE TITLE:
          ======================================


A GOOD DAY TO DIE HARD [2013]EXTENDED BLURAY 1080P DUAL AUDIO [HIN 5.1-ENG 5.1] TARIQ QURESHI
                     ================================================= 
http://i.imgur.com/PmfLCHt.jpg


                    General:
                                   ===============
IMDB LINK                                : http://www.imdb.com/title/tt1606378/ 
Format                                   : Matroska
Format version                           : Version 4 / Version 2
File size                                : 2.93 GiB
Duration                                 : 1h 41mn
Overall bit rate                         : 4 141 Kbps
Encoded date                             : UTC 2013-06-21 11:38:23
Movie name                               : A GOOD DAY TO DIE HARD [2013]EXTENDED BLURAY 1080P DUAL AUDIO [HIN 5.1-ENG 5.1] TARIQ QURESHI
=======================================================================================
                  VIDEO:
                              ===============
[size=2][color=green]
ID                                       : 1
Format                                   : AVC
Format/Info                              : Advanced Video Codec
Format profile                           : High@L4.1
Format settings, CABAC                   : Yes
Format settings, ReFrames                : 4 frames
Codec ID                                 : V_MPEG4/ISO/AVC
Duration                                 : 1h 41mn
Bit rate                                 : 3 250 Kbps
Width                                    : 1 920 pixels
Height                                   : 1 040 pixels
Display aspect ratio                     : 1.85:1
Frame rate mode                          : Constant
Frame rate                               : 23.976 fps
Color space                              : YUV
Chroma subsampling                       : 4:2:0
Bit depth                                : 8 bits
Scan type                                : Progressive
Bits/(Pixel*Frame)                       : 0.068
Stream size                              : 2.24 GiB (76%)
Writing library                          : x264 core 130 r2273 b3065e6
Language                                 : English
Default                                  : Yes
Forced                                   : No
=====================================================================================
AUDIO:1
          ================

ID                                       : 2
Format                                   : AC-3
Format/Info                              : Audio Coding 3
Mode extension                           : CM (complete main)
Format settings, Endianness              : Big
Codec ID                                 : A_AC3
Duration                                 : 1h 41mn
Bit rate mode                            : Constant
Bit rate                                 : 448 Kbps
Channel(s)                               : 6 channels
Channel positions                        : Front: L C R, Side: L R, LFE
Sampling rate                            : 48.0 KHz
Bit depth                                : 16 bits
Compression mode                         : Lossy
Stream size                              : 324 MiB (11%)
Title                                    : 5.1 TARIQ QURESHI
Language                                 : English
Default                                  : No
Forced                                   : No

===================================================================================
AUDIO:2
            ================


ID                                       : 3
Format                                   : AC-3
Format/Info                              : Audio Coding 3
Mode extension                           : CM (complete main)
Format settings, Endianness              : Big
Codec ID                                 : A_AC3
Duration                                 : 1h 41mn
Bit rate mode                            : Constant
Bit rate                                 : 448 Kbps
Channel(s)                               : 6 channels
Channel positions                        : Front: L C R, Side: L R, LFE
Sampling rate                            : 48.0 KHz
Bit depth                                : 16 bits
Compression mode                         : Lossy
Stream size                              : 324 MiB (11%)
Title                                    : 5.1 TARIQ QURESHI
Language                                 : Hindi
Default                                  : Yes
Forced                                   : No

===================================================================================
SCREEN SHOT
            ========================= 
http://i.imgur.com/yOLOy6C.jpg 
http://i.imgur.com/KlfGCQW.jpg 
http://i.imgur.com/PyNt5LS.jpg 
http://i.imgur.com/CiTqtlL.jpg 
http://i.imgur.com/8ZYYSLh.jpg 
http://i.imgur.com/SMFz8Me.jpg 
http://i.imgur.com/oCD4zna.jpg 
http://i.imgur.com/e6ZGU4k.jpg 
http://i.imgur.com/1VNduQB.jpg